<?xml version="1.0" encoding="utf-8"?>
<!-- Generator: Adobe Illustrator 24.0.2, SVG Export Plug-In . SVG Version: 6.00 Build 0)  -->
<svg version="1.1" id="圖層_1" xmlns="http://www.w3.org/2000/svg" xmlns:xlink="http://www.w3.org/1999/xlink" x="0px" y="0px"
	 viewBox="0 0 238.8 30.8" style="enable-background:new 0 0 238.8 30.8;" xml:space="preserve">
<style type="text/css">
	.st0{fill:#FFFFFF;}
	.st1{fill:#009580;stroke:#FFFFFF;stroke-miterlimit:10;}
	.st2{fill:#005BA4;}
</style>
<title>logo</title>
<path class="st0" d="M38.4,0.5h19.4v19h-2v-0.9H40.4v0.9h-2L38.4,0.5z M40.4,2.2v14.9h15.4V2.2H40.4z M49.8,12.9
	c-0.8-2.2-1.2-4.4-1.3-6.7h-7.3V4.6h7.2V2.8h1.9v1.7H55v1.6h-4.7c0,1.7,0.3,3.3,0.8,4.9c0.8-1.3,1.4-2.7,1.8-4.2l1.5,0.9
	c-0.7,1.9-1.5,3.6-2.6,5.3c0.1,0.3,0.3,0.6,0.4,0.8c0.3,0.4,0.5,0.7,0.7,0.7s0.5-0.8,1-2.4l1.5,1.1c-0.7,2.2-1.5,3.3-2.6,3.3
	c-0.8,0-1.6-0.7-2.3-2.1c-0.7,0.9-1.4,1.6-2.2,2.3L47,15.5c0.6-0.4,1.1-0.8,1.6-1.3c-2.4,0.6-4.7,1-7.1,1.3l-0.3-1.8
	c2.6-0.2,5.2-0.5,7.7-1.1v1.3L49.8,12.9z M41.9,7.3h5.6v4.9h-5.6V7.3z M45.8,8.9h-2.2v1.8h2.2V8.9z M52.8,4.5
	c-0.3-0.7-0.6-1.3-1.1-1.8l1.5-0.5c0.3,0.2,0.5,0.5,0.7,0.8L54.4,4L52.8,4.5z"/>
<path class="st0" d="M80.9,16.9v2H60.3v-2H80.9z M60.7,6.1v-2h19.8v2H60.7z M66.5,16.2c-0.5-3-1.4-5.9-2.6-8.7L66,6.9
	c1.3,2.8,2.2,5.7,2.9,8.7L66.5,16.2z M70.8,4.1C69.6,3,68.4,2,67,1.1L68.6,0c1.3,0.8,2.6,1.7,3.7,2.7L70.8,4.1z M77.5,7.4
	c-0.6,3-1.6,6-2.9,8.8l-2.3-0.7c1.4-2.7,2.4-5.6,3-8.6L77.5,7.4z"/>
<path class="st0" d="M93.4,2.4h8.2v17.1h-2.2v-1.1H86.9v1.1h-2.2V2.4h6.6c0.4-0.8,0.7-1.6,0.9-2.4l2.2,0.2L94,1.3
	C93.8,1.7,93.6,2.1,93.4,2.4z M99.4,4.4H86.9v2.4h12.5L99.4,4.4z M86.9,11.5h12.5V8.7H86.9V11.5z M86.9,16.5h12.5v-3.1H86.9V16.5z"
	/>
<path class="st0" d="M110.3,14.3c-0.6,1.9-1.6,3.6-2.8,5.1l-2-1.2c1.2-1.4,2.1-3,2.8-4.7L110.3,14.3z M119.7,8.3
	c-1,2.5-2.9,4.5-5.3,5.5l-1.3-1.7c2.9-1.3,4.6-3.1,5.2-5.4h-2.8c-0.7,1.5-1.8,2.8-3.1,3.9c-1.6,1.3-3.5,2.4-5.5,3.1l-1.2-1.9
	c1.7-0.4,3.3-1.2,4.6-2.3c-0.8-0.7-1.7-1.4-2.6-1.9c-0.1,0.2-0.3,0.3-0.5,0.5l-0.5,0.3l-1.2-1.7c2.4-1.6,4.1-4,5-6.8l2,0.5
	c-0.1,0.3-0.2,0.5-0.3,0.8c-0.1,0.2-0.1,0.3-0.2,0.5h4.8v1c0,0.7-0.2,1.5-0.6,2.1h2.3V0.3h2.1v4.6h5.1v1.8h-4.7c0.3,1,0.9,2,1.6,2.8
	c1,1,2.1,1.9,3.3,2.6l-1.2,1.7C122.6,12.5,120.8,10.6,119.7,8.3L119.7,8.3z M109.1,6.5c1,0.5,1.9,1.2,2.8,1.9
	c0.4-0.4,0.8-0.8,1.1-1.3c-0.9-0.7-2-1.2-3.1-1.6C109.6,5.8,109.3,6.2,109.1,6.5z M110.8,4.2c0.7,0.2,1.7,0.7,3.1,1.4
	c0.4-0.7,0.7-1.4,0.8-2.2h-3.4C111.2,3.7,111,4,110.8,4.2L110.8,4.2z M112,19.3c0-0.5,0-1.1,0-1.9c0-1.1,0-2.1-0.1-2.9l2.1-0.1
	c0.2,1.4,0.3,2.9,0.3,4.3v0.4L112,19.3z M117.7,19.3c-0.2-1.6-0.4-3.2-0.8-4.8l2.1-0.2c0.5,1.5,0.9,3,1.1,4.6L117.7,19.3z
	 M123.4,4.7c-0.6-0.9-1.3-1.8-2-2.6l1.5-1c0.7,0.8,1.4,1.6,2.1,2.5L123.4,4.7z M123.9,19.4c-0.8-1.7-1.6-3.3-2.5-4.9l2-0.8
	c1,1.5,1.9,3.1,2.7,4.8L123.9,19.4z"/>
<path class="st0" d="M132.3,3c-1.1,0.2-2.3,0.3-3.4,0.3l-0.5-1.7c2.9-0.1,5.7-0.6,8.4-1.5l0.7,1.7c-1.1,0.4-2.2,0.6-3.3,0.9v3h3.3
	v1.8h-3.3v0.2c1.6,1.4,2.9,2.6,3.7,3.4l-1.2,1.8c-0.4-0.5-0.8-1.1-1.3-1.6c-0.4-0.4-0.8-0.9-1.2-1.4v9.7l-2,0.1V11
	c-0.8,1.7-1.8,3.2-3,4.6l-1.2-1.9c1.8-1.9,3.2-4,4.1-6.4h-4V5.6h4.1L132.3,3z M137.4,14.9V13l7.3-1V0h2v11.7l2-0.3v1.9l-2,0.3v6h-2
	v-5.7L137.4,14.9z M142.2,10.7c-1.3-1-2.6-1.9-4-2.8l1.3-1.4c1.4,0.7,2.7,1.6,4,2.5L142.2,10.7z M142.5,5.7c-1.3-1-2.6-1.9-3.9-2.7
	l1.3-1.4c1.4,0.8,2.7,1.6,4,2.5L142.5,5.7z"/>
<path class="st0" d="M167,11.3v1.5c-1.5,0.7-3.1,1.3-4.7,1.8h9.1v1.7h-9.1v0.9c0,1.5-0.7,2.2-2,2.2H157l-0.5-1.7l3,0.1
	c0.4,0,0.7-0.2,0.7-0.6v-0.9h-9.5v-1.7h9.5v-0.9c1.3-0.2,2.6-0.5,3.8-0.9h-9.2v-1.5H167z M168.9,10.4h-15.7v3h-1.9V8.8h1.1l-0.2-8
	c1.6,0,3.2-0.2,4.8-0.6l1,1.5c-1.3,0.3-2.6,0.5-3.9,0.6l0.1,1.1h3.4v1.4h-3.3V6h3.3v1.4h-3.3v1.4h13.7V7.4h-3.1V6h3.2V4.8h-3.2V3.4
	h3.2V2.2h-3.5V0.6h5.4l-0.2,8.2h1.2v4.7h-2L168.9,10.4z M161.4,2.9c-0.8,0.5-1.7,0.9-2.6,1.3l-1.1-1.4c0.9-0.2,1.7-0.4,2.4-0.8
	c-0.5-0.4-1-0.7-1.5-1l1.2-1c0.6,0.3,1.1,0.7,1.7,1.1c0.5-0.3,1-0.7,1.4-1.1l1.1,1c-0.4,0.4-0.8,0.8-1.3,1.1
	c0.3,0.2,0.7,0.6,1.2,1.1l-1.3,0.9C161.9,3.3,161.6,3,161.4,2.9L161.4,2.9z M161.5,7.2c-0.8,0.5-1.6,0.9-2.5,1.2L158,7
	c0.8-0.1,1.6-0.4,2.3-0.8c-0.3-0.2-0.8-0.5-1.5-1l1.2-0.9c0.3,0.2,0.5,0.3,0.8,0.4s0.6,0.4,0.9,0.6c0.6-0.4,1.1-0.8,1.5-1.3l1.2,0.9
	c-0.5,0.5-1,0.9-1.5,1.2c0.4,0.3,0.8,0.7,1.2,1.1l-1.4,1C162,7.6,161.6,7.2,161.5,7.2L161.5,7.2z"/>
<path class="st0" d="M173.3,7V5.2h2.3V0h2v5.2h1.7V7h-1.7v12.6h-2V7H173.3z M187.2,0v1.9h3.1c-0.3-0.4-0.7-0.8-1.1-1.1l1.4-0.8
	c0.5,0.4,1,0.8,1.4,1.3L191,1.9h3v1.7h-6.7v0.9h5.7v6.2c0,1-0.1,1.6-0.4,1.9c-0.3,0.2-0.8,0.4-1.2,0.4v0.6h2.6v1.8h-2.6v2
	c0,1.5-0.7,2.2-2,2.2h-2.3l-0.5-1.8l2.2,0.1c0.4,0,0.6-0.2,0.6-0.6v-1.9h-6.4c0.8,0.7,1.6,1.5,2.4,2.4l-1.6,1.3
	c-0.7-0.9-1.5-1.8-2.4-2.6l1.4-1.1H179v-1.8h10.4v-0.6h-0.6l-0.5-1.4h2.1c0.4,0,0.6-0.2,0.6-0.5v-0.3h-3.9v1.8h-1.9v-1.7H182v2.2
	h-1.9V4.4h5.2V3.5h-5.8V1.9h5.8V0H187.2z M185.4,6.8v-1H182v1H185.4z M185.4,9.2v-1H182v1.1L185.4,9.2z M191.1,6.8v-1h-3.9v1H191.1z
	 M191.1,9.2v-1h-3.9v1.1L191.1,9.2z"/>
<path class="st0" d="M197.9,9.5L196,8.9c0.8-2.3,1.2-4.7,1.2-7.2l1.8,0.2c0,0.5,0,0.9,0,1.2s0,0.8-0.1,1.1h1.4V0h2v4.3h1.9v1.9h-1.9
	v3.5c0.9-0.4,1.6-0.7,2.1-0.9l0.4,1.9c-0.8,0.4-1.6,0.8-2.4,1.1v7.8h-2v-7.1c-0.6,0.3-1.2,0.5-1.8,0.7l-1.7,0.6l-0.8-2
	c2-0.6,3.4-1.1,4.3-1.5V6.2h-1.6C198.5,7.3,198.3,8.4,197.9,9.5z M213.3,4.6c0,3-0.7,6-2.2,8.7c-1.2,2.2-2.8,4-4.8,5.5l-1.6-1.6
	c2-1.3,3.6-3.1,4.7-5.1c1.3-2.2,2-4.8,1.9-7.4l0,0h-0.9c-0.3,3.8-2.2,7.2-5.1,9.6l-1.6-1.6c2.7-1.8,4.5-4.8,4.8-8h-1
	c-0.4,1.3-1.1,2.5-2.1,3.6l-1.7-1.3c1.7-1.9,2.7-4.3,2.8-6.9l2.1,0.2c-0.1,0.9-0.3,1.8-0.6,2.6h7.9v1.3c0,4-0.1,7.3-0.2,9.8
	s-0.4,4-0.9,4.6c-0.5,0.5-1.5,0.8-3.2,0.8c-0.5,0-1,0-1.5,0l-0.5-2.3c0.8,0.1,1.6,0.2,2.4,0.2c0.4,0,0.9-0.1,1.2-0.3
	c0.4-0.9,0.5-1.8,0.5-2.8c0.2-2.1,0.3-4.5,0.3-7.2c0-0.9,0-1.7,0-2.2L213.3,4.6z"/>
<path class="st0" d="M224.1,1.7c-1.3,1.8-2.9,3.3-4.8,4.4l-0.7-1.6c1.8-1.1,3.4-2.6,4.7-4.3h1.6C225.9,1,226.9,2,228,3l-1.2,1.5
	C225.9,3.6,225,2.6,224.1,1.7z M227.2,13.4h-5.3v3.5c1.4-0.3,2.5-0.6,3.3-0.8c-0.3-0.6-0.7-1.2-1.1-1.8l1.6-0.6
	c1.1,1.3,1.9,2.8,2.6,4.3l-1.8,0.9c-0.2-0.5-0.4-0.9-0.6-1.4c-2.2,0.8-4.5,1.3-6.9,1.7l-0.4-1.8c0.5,0,0.9-0.1,1.4-0.2V5.6h3.4
	c-0.1-0.7-0.4-1.3-0.7-2l1.7-0.2c0.4,0.7,0.7,1.4,0.9,2.2h2L227.2,13.4z M225.3,7.1h-3.4v1.6h3.4V7.1z M221.9,11.9h3.4v-1.7h-3.4
	V11.9z M228.8,6.1H228V1.9h4.4c-0.1-0.6-0.4-1.1-0.7-1.6l1.9-0.3c0.2,0.3,0.3,0.7,0.4,1c0.1,0.3,0.2,0.7,0.4,1h4.4v4.1h-1.3v4.7
	h-6.9v1.6h7.7v7.1h-1.9v-1.2h-5.8v1.2h-1.9L228.8,6.1z M237,5.2V3.7h-7.1v1.6H237z M235.7,7h-5v2.1h5V7z M236.5,14.2h-5.8v2.5h5.8
	V14.2z"/>
<path class="st0" d="M43.9,30.7h-1l-3.6-5.3c-0.1-0.1-0.2-0.3-0.2-0.4l0,0c0,0.3,0,0.6,0,0.9v4.8h-0.8v-6.6h1.1l3.5,5.2
	c0.2,0.2,0.2,0.4,0.3,0.5l0,0c0-0.3,0-0.7,0-1v-4.7h0.8L43.9,30.7z"/>
<path class="st0" d="M51.4,30.8h-0.9L49.7,29h-3L46,30.9h-0.9l2.7-6.6h0.8L51.4,30.8z M49.5,28.3l-1.1-2.8c-0.1-0.1-0.1-0.3-0.1-0.5
	l0,0c0,0.2-0.1,0.3-0.1,0.5L47,28.3H49.5z"/>
<path class="st0" d="M56,24.9h-2v5.9h-0.8v-5.9h-2v-0.7H56V24.9z"/>
<path class="st0" d="M58.8,24.2v0.7h-0.7v5.3h0.7v0.7h-2.2v-0.7h0.7v-5.3h-0.7v-0.7H58.8z"/>
<path class="st0" d="M63,30.8c-0.9,0-1.8-0.3-2.4-0.9c-0.6-0.7-0.9-1.5-0.9-2.4c0-0.9,0.3-1.9,0.9-2.6c0.6-0.7,1.5-1,2.5-1
	c0.9,0,1.7,0.3,2.3,0.9c0.6,0.7,0.9,1.5,0.9,2.4c0,0.9-0.3,1.9-0.9,2.6C64.8,30.5,63.9,30.8,63,30.8z M63.1,24.7
	c-0.7,0-1.3,0.3-1.8,0.8c-0.9,1.2-0.9,2.8,0,4c0.4,0.5,1.1,0.8,1.8,0.8c0.7,0,1.3-0.2,1.8-0.7c0.5-0.6,0.7-1.3,0.7-2
	c0-0.7-0.2-1.4-0.6-2C64.4,24.9,63.7,24.6,63.1,24.7z"/>
<path class="st0" d="M73.6,30.8h-1L69,25.5c-0.1-0.1-0.2-0.3-0.2-0.4l0,0c0,0.3,0,0.6,0,0.9v4.8H68v-6.6h1l3.5,5.2
	c0.2,0.2,0.2,0.4,0.3,0.5l0,0c0-0.3,0-0.7,0-1v-4.7h0.8L73.6,30.8z"/>
<path class="st0" d="M81,30.8h-0.9L79.4,29h-3l-0.7,1.9h-0.9l2.7-6.6h0.8L81,30.8z M79.1,28.3L78,25.4c-0.1-0.1-0.1-0.3-0.1-0.5l0,0
	c0,0.2-0.1,0.3-0.1,0.5l-1.1,2.8H79.1z"/>
<path class="st0" d="M85.9,30.8h-3.6v-6.6h0.8v5.9h2.8L85.9,30.8z"/>
<path class="st0" d="M98,30.7h-0.8v-4.5c0-0.4,0-0.8,0.1-1.3l0,0c-0.1,0.2-0.1,0.4-0.2,0.6l-2.4,5.1h-0.4l-2.4-5.1
	c-0.1-0.2-0.2-0.4-0.3-0.6l0,0c0,0.3,0,0.7,0,1.3v4.5h-0.8v-6.7h1.1l2.2,4.6c0.1,0.3,0.2,0.5,0.3,0.8l0,0c0.1-0.4,0.2-0.6,0.3-0.8
	l2.2-4.6h1L98,30.7z"/>
<path class="st0" d="M105.1,28c0,1.9-0.9,2.8-2.7,2.8c-1.8,0-2.6-0.9-2.6-2.7v-4h0.8v4c0,1.3,0.6,2,1.8,2c1.2,0,1.8-0.7,1.8-2v-4
	h0.8L105.1,28z"/>
<path class="st0" d="M106.7,30.4v-0.9c0.1,0.1,0.3,0.2,0.4,0.2c0.2,0.1,0.3,0.1,0.5,0.2c0.2,0.1,0.3,0.1,0.5,0.1c0.2,0,0.3,0,0.5,0
	c0.4,0,0.8-0.1,1.1-0.3c0.2-0.2,0.4-0.5,0.4-0.8c0-0.2,0-0.3-0.1-0.5c-0.1-0.1-0.2-0.3-0.3-0.4c-0.2-0.1-0.3-0.2-0.5-0.3l-0.7-0.3
	c-0.2-0.1-0.5-0.2-0.7-0.4c-0.2-0.1-0.4-0.2-0.6-0.4c-0.2-0.1-0.3-0.3-0.4-0.5c-0.2-0.5-0.2-1,0.1-1.4c0.1-0.2,0.3-0.4,0.6-0.5
	c0.2-0.2,0.5-0.3,0.8-0.3c0.3-0.1,0.6-0.1,0.9-0.1c0.5,0,1,0.1,1.5,0.2V25c-0.5-0.3-1-0.4-1.6-0.4c-0.2,0-0.4,0-0.5,0
	c-0.2,0-0.3,0.1-0.5,0.2c-0.1,0.1-0.3,0.2-0.3,0.3c-0.1,0.1-0.1,0.3-0.1,0.5c0,0.2,0,0.3,0.1,0.4c0.1,0.1,0.2,0.2,0.3,0.3
	c0.1,0.1,0.3,0.2,0.5,0.3l0.7,0.3c0.2,0.1,0.5,0.2,0.7,0.4c0.2,0.1,0.4,0.3,0.6,0.4c0.2,0.2,0.3,0.3,0.4,0.5
	c0.1,0.2,0.2,0.4,0.2,0.7c0,0.3-0.1,0.6-0.2,0.8c-0.1,0.2-0.3,0.4-0.6,0.5c-0.2,0.1-0.5,0.3-0.8,0.3c-0.3,0.1-0.6,0.1-0.9,0.1h-0.4
	l-0.5-0.1c-0.2,0-0.3-0.1-0.5-0.1C107,30.6,106.9,30.5,106.7,30.4z"/>
<path class="st0" d="M116.3,30.7h-3.7v-6.6h3.6v0.7h-2.7V27h2.5v0.7h-2.5V30h2.9V30.7z"/>
<path class="st0" d="M123,28c0,1.9-0.9,2.8-2.7,2.8c-1.8,0-2.6-0.9-2.6-2.7v-4h0.8v4c0,1.3,0.6,2,1.8,2s1.8-0.7,1.8-2v-4h0.8V28z"/>
<path class="st0" d="M132,30.7h-0.8v-4.5c0-0.4,0-0.8,0.1-1.3l0,0c-0.1,0.2-0.1,0.4-0.2,0.6l-2.4,5.1h-0.4l-2.4-5.1
	c-0.1-0.2-0.2-0.4-0.2-0.7l0,0c0,0.3,0,0.7,0,1.3v4.4h-0.8v-6.7h1.1l2.1,4.6c0.1,0.3,0.2,0.5,0.3,0.8l0,0c0.1-0.4,0.2-0.6,0.3-0.8
	l2.2-4.6h1V30.7z"/>
<path class="st0" d="M139.8,30.8c-0.9,0-1.8-0.3-2.4-0.9c-0.6-0.7-0.9-1.5-0.9-2.4c0-0.9,0.3-1.9,0.9-2.6c0.6-0.7,1.5-1,2.5-1
	c0.9,0,1.7,0.3,2.3,0.9c0.6,0.7,0.9,1.5,0.9,2.4c0,0.9-0.3,1.9-0.9,2.6C141.6,30.5,140.7,30.9,139.8,30.8z M139.9,24.6
	c-0.7,0-1.3,0.3-1.8,0.8c-0.9,1.2-0.9,2.8,0,4c0.4,0.5,1.1,0.8,1.8,0.8c0.7,0,1.3-0.2,1.8-0.7c0.5-0.6,0.7-1.3,0.7-2
	c0-0.7-0.2-1.4-0.6-2C141.2,24.9,140.6,24.6,139.9,24.6z"/>
<path class="st0" d="M148.3,24.8h-2.7v2.3h2.5v0.7h-2.5v2.9h-0.8v-6.7h3.6V24.8z"/>
<path class="st0" d="M158.7,30.7h-1l-3.6-5.3c-0.1-0.1-0.2-0.3-0.2-0.4l0,0c0,0.3,0,0.6,0,0.9v4.8H153v-6.6h1.1l3.5,5.2
	c0.1,0.2,0.2,0.4,0.3,0.4l0,0c0-0.3,0-0.7,0-1v-4.7h0.8L158.7,30.7z"/>
<path class="st0" d="M166.1,30.7h-0.9l-0.7-1.9h-3l-0.7,1.9h-0.9l2.7-6.6h0.9L166.1,30.7z M164.2,28.1l-1.1-2.8
	c0-0.1-0.1-0.3-0.1-0.5l0,0c0,0.2-0.1,0.3-0.1,0.5l-1.1,2.8H164.2z"/>
<path class="st0" d="M170.8,24.8h-2v5.9H168v-5.9h-2v-0.7h4.9L170.8,24.8z"/>
<path class="st0" d="M177.2,28c0,1.9-0.9,2.8-2.7,2.8c-1.8,0-2.6-0.9-2.6-2.7v-4.1h0.8v4c0,1.3,0.6,2,1.8,2s1.8-0.7,1.8-2v-4h0.8
	L177.2,28z"/>
<path class="st0" d="M184.2,30.7h-1l-1.2-1.9c-0.1-0.2-0.2-0.3-0.3-0.4c-0.1-0.1-0.2-0.2-0.3-0.3c-0.1-0.1-0.2-0.1-0.3-0.2
	c-0.1,0-0.3-0.1-0.4,0H180v2.8h-0.8v-6.7h2.1c0.3,0,0.6,0,0.9,0.1c0.2,0.1,0.5,0.2,0.7,0.3c0.2,0.1,0.3,0.3,0.4,0.5
	c0.1,0.2,0.2,0.5,0.2,0.8c0,0.2,0,0.4-0.1,0.6c-0.1,0.2-0.2,0.4-0.3,0.5c-0.1,0.2-0.3,0.3-0.5,0.4c-0.2,0.1-0.4,0.2-0.6,0.2l0,0
	c0.1,0,0.2,0.1,0.3,0.2c0.1,0.1,0.2,0.1,0.2,0.2c0.1,0.1,0.2,0.2,0.2,0.3l0.3,0.4L184.2,30.7z M180,24.8v2.4h1.1
	c0.2,0,0.4,0,0.6-0.1c0.2-0.1,0.3-0.1,0.4-0.3c0.1-0.1,0.2-0.2,0.3-0.4c0.1-0.2,0.1-0.3,0.1-0.5c0-0.3-0.1-0.6-0.4-0.8
	c-0.3-0.2-0.7-0.3-1.1-0.3H180z"/>
<path class="st0" d="M190.8,30.7h-0.9l-0.7-1.9h-3l-0.7,1.9h-0.9l2.7-6.6h0.9L190.8,30.7z M188.8,28.1l-1.1-2.8
	c0-0.1-0.1-0.3-0.1-0.5l0,0c0,0.2-0.1,0.3-0.1,0.5l-1.1,2.8H188.8z"/>
<path class="st0" d="M195.6,30.7H192v-6.6h0.8V30h2.8L195.6,30.7z"/>
<path class="st0" d="M200.4,30.4v-0.9c0.1,0.1,0.3,0.2,0.4,0.2c0.2,0.1,0.3,0.1,0.5,0.2c0.2,0.1,0.3,0.1,0.5,0.1c0.2,0,0.3,0,0.5,0
	c0.4,0,0.8-0.1,1.1-0.3c0.2-0.2,0.4-0.5,0.4-0.8c0-0.2,0-0.3-0.1-0.5c-0.1-0.1-0.2-0.3-0.3-0.4c-0.2-0.1-0.3-0.2-0.5-0.3l-0.6-0.3
	l-0.7-0.4c-0.2-0.1-0.4-0.2-0.6-0.4c-0.2-0.1-0.3-0.3-0.4-0.5c-0.2-0.5-0.2-1,0.1-1.4c0.1-0.2,0.3-0.4,0.6-0.5
	c0.2-0.2,0.5-0.3,0.8-0.3c0.3-0.1,0.6-0.1,0.9-0.1c0.5,0,1,0.1,1.5,0.2V25c-0.5-0.3-1-0.4-1.6-0.4c-0.2,0-0.4,0-0.5,0
	c-0.2,0-0.3,0.1-0.5,0.2c-0.1,0.1-0.3,0.2-0.3,0.3c-0.1,0.1-0.1,0.3-0.1,0.5c0,0.2,0,0.3,0.1,0.4c0.1,0.1,0.2,0.2,0.3,0.3
	c0.1,0.1,0.3,0.2,0.5,0.3l0.6,0.3c0.2,0.1,0.5,0.2,0.7,0.4c0.2,0.1,0.4,0.3,0.6,0.4c0.2,0.1,0.3,0.3,0.4,0.5
	c0.1,0.2,0.2,0.4,0.1,0.7c0,0.3-0.1,0.6-0.2,0.8c-0.1,0.2-0.3,0.4-0.6,0.6c-0.2,0.1-0.5,0.3-0.8,0.3c-0.3,0.1-0.6,0.1-0.9,0.1h-0.4
	l-0.5-0.1c-0.2,0-0.3-0.1-0.5-0.1C200.6,30.6,200.5,30.5,200.4,30.4z"/>
<path class="st0" d="M211,30.4c-0.6,0.3-1.3,0.4-1.9,0.4c-0.9,0-1.8-0.3-2.4-0.9c-0.6-0.6-0.9-1.5-0.9-2.4c0-1,0.3-1.9,1-2.6
	c0.7-0.7,1.6-1,2.6-1c0.6,0,1.1,0.1,1.6,0.3V25c-0.5-0.3-1.1-0.4-1.7-0.4c-0.7,0-1.5,0.2-2,0.8c-0.5,0.5-0.8,1.3-0.8,2
	c0,0.7,0.2,1.4,0.7,1.9c0.5,0.5,1.2,0.8,1.8,0.7c0.6,0,1.3-0.1,1.8-0.5L211,30.4z"/>
<path class="st0" d="M214.1,24.1v0.7h-0.7V30h0.7v0.7h-2.2V30h0.7v-5.3h-0.7v-0.7H214.1z"/>
<path class="st0" d="M219.1,30.7h-3.7v-6.6h3.6v0.7h-2.7V27h2.5v0.7h-2.5V30h2.9L219.1,30.7z"/>
<path class="st0" d="M226.3,30.7h-1l-3.6-5.3c-0.1-0.1-0.2-0.3-0.2-0.4l0,0c0,0.3,0,0.6,0,0.9v4.8h-0.8v-6.6h1.1l3.5,5.2
	c0.1,0.2,0.2,0.4,0.3,0.5l0,0c0-0.3,0-0.7,0-1v-4.7h0.8L226.3,30.7z"/>
<path class="st0" d="M233.1,30.4c-0.6,0.3-1.3,0.4-1.9,0.4c-0.9,0-1.8-0.3-2.4-0.9c-0.6-0.6-0.9-1.5-0.9-2.4c0-1,0.3-1.9,1-2.6
	c0.7-0.7,1.6-1,2.6-1c0.6,0,1.1,0.1,1.6,0.3V25c-0.5-0.3-1.1-0.4-1.7-0.4c-0.7,0-1.5,0.2-2,0.8c-0.5,0.5-0.8,1.3-0.8,2
	c0,0.7,0.2,1.4,0.7,1.9c0.5,0.5,1.2,0.8,1.8,0.7c0.6,0,1.3-0.1,1.8-0.5L233.1,30.4z"/>
<path class="st0" d="M238.5,30.7h-3.7v-6.6h3.6v0.7h-2.7V27h2.5v0.7h-2.5V30h2.9V30.7z"/>
<rect x="0.6" y="0.5" class="st1" width="30.2" height="29.6"/>
<rect x="1.1" y="26" class="st2" width="29.2" height="3.6"/>
<path class="st0" d="M17.5,7.2c-0.1,0-0.2,0-0.2-0.1L16,7.6c0,0,0,0.1,0,0.1l0,0l0.9,0.1l0,0c0.1,0,0.1,0,0.2,0c0,0.1,0,0.1,0,0.2
	c0,0,0,0-0.1,0c0,0-0.1,0-0.1-0.1L16,7.8c0,0.1,0,0.1,0,0.2l0.8,0.4l0,0c0.1,0,0.1,0,0.2,0c0,0.1,0,0.1,0,0.2c-0.1,0-0.1,0-0.2,0
	c0,0,0-0.1,0-0.1L16,8.1c0,0-0.1,0.1-0.1,0.1l0.8,1.1c0.1,0,0.2,0,0.2,0.1c0.1,0.1,0.1,0.2,0,0.3c0,0,0,0,0,0c-0.1,0.1-0.2,0-0.3,0
	c-0.1-0.1-0.1-0.2,0-0.2l-0.8-1.1l-0.2,0.1l0.2,0.9c0,0,0.1,0,0.1,0c0.1,0,0.1,0.1,0,0.2c0,0,0,0,0,0c0,0.1-0.1,0.1-0.2,0
	c0,0,0,0,0,0c0-0.1,0-0.1,0-0.2l0,0l-0.2-0.9h-0.1c0,0-0.1,0-0.1,0l-0.2,0.9c0,0,0,0,0.1,0.1c0,0.1,0,0.1-0.1,0.2c0,0,0,0,0,0
	C15,9.5,15,9.4,15,9.3s0.1-0.1,0.1-0.1l0,0l0.2-0.9l-0.1-0.1l-0.8,1.1c0.1,0.1,0,0.2-0.1,0.3c-0.1,0.1-0.2,0-0.3-0.1
	c-0.1-0.1-0.1-0.2,0-0.3c0,0,0,0,0,0c0.1-0.1,0.1-0.1,0.2-0.1L15,8.1c-0.1,0-0.1-0.1-0.1-0.1l-0.8,0.5c0,0,0,0.1,0,0.1
	c-0.1,0-0.1,0-0.2,0c0,0-0.1-0.1,0-0.2c0,0,0,0,0,0c0.1,0,0.1,0,0.2,0l0,0l0.8-0.5c0,0,0-0.1,0-0.2l-0.9,0.1c0,0,0,0.1-0.1,0.1
	c-0.1,0-0.1,0-0.2,0c0-0.1,0-0.1,0-0.2c0.1,0,0.1,0,0.2,0l0,0l0.9-0.1c0,0,0-0.1,0-0.1l-1.3-0.4c0,0.1-0.1,0.1-0.2,0.1
	c-0.1,0-0.2-0.1-0.2-0.2c0-0.1,0.1-0.2,0.3-0.1c0.1,0,0.1,0.1,0.1,0.2l1.3,0.4c0-0.1,0.1-0.1,0.1-0.2l-0.7-0.6l0,0
	c-0.1,0-0.1,0-0.2-0.1c0,0,0,0,0,0c0-0.1,0-0.1,0.1-0.2c0,0,0,0,0,0c0.1,0,0.1,0,0.2,0.1l0,0c0,0,0,0.1,0,0.1L15,7.3
	c0,0,0.1-0.1,0.1-0.1l-0.4-0.8l0,0c-0.1,0-0.1-0.1-0.1-0.1c0-0.1,0.1-0.1,0.1-0.1s0.1,0.1,0.1,0.1c0,0,0,0.1,0,0.1l0.4,0.8h0.1V5.7
	c-0.1,0-0.1-0.1-0.1-0.2c0-0.1,0.1-0.2,0.2-0.2l0,0c0.1,0,0.2,0.1,0.2,0.2l0,0c0,0.1-0.1,0.2-0.1,0.2v1.3h0.1L16,6.3
	c0,0,0-0.1,0-0.1C16,6.1,16,6,16.1,6c0,0,0,0,0,0c0.1,0,0.1,0.1,0.1,0.1c0,0,0,0,0,0c0,0.1-0.1,0.1-0.1,0.1l0,0l-0.4,0.8
	c0,0,0.1,0.1,0.1,0.1l0.7-0.6l0,0c0-0.1,0-0.2,0.1-0.2c0.1,0,0.2,0,0.2,0.1c0,0.1,0,0.2-0.1,0.2c0,0,0,0,0,0c0,0-0.1,0-0.1,0
	l-0.7,0.6c0,0,0,0.1,0.1,0.1L17.2,7c0-0.1,0.1-0.2,0.1-0.2c0.1,0,0.2,0,0.3,0.1S17.6,7.2,17.5,7.2L17.5,7.2z M18.8,7
	c0-0.8-0.7-1.5-1.5-1.5c-0.2,0-0.3,0-0.4,0.1c-0.2-0.8-1-1.3-1.8-1.1c-0.6,0.1-1.1,0.6-1.2,1.2c-0.1,0-0.2-0.1-0.3-0.1
	c-0.9,0-1.5,0.7-1.5,1.6c0,0.7,0.4,1.2,1,1.4c-0.2,0.2-0.2,0.5-0.2,0.8c0,0.9,0.7,1.6,1.5,1.6c0,0,0,0,0,0c0.5,0,0.9-0.2,1.2-0.6
	c0.3,0.3,0.7,0.6,1.2,0.6c0.9,0,1.5-0.7,1.5-1.6c0-0.3-0.1-0.6-0.3-0.9C18.5,8.3,18.9,7.7,18.8,7z"/>
<path class="st0" d="M4.7,4.9h0.2C6,5,7.1,5.4,7.2,6.8V7c0,0,0,0.1,0,0.2C7.1,7.8,6.5,8.4,5.7,8.4H5.6C5,8.2,4.7,7.7,4.9,7.1
	c0,0,0,0,0,0V7C5,6.8,5.1,6.7,5.3,6.6h0.1C5.6,6.7,5.9,6.8,6,7C5.9,6.5,5.4,6.1,4.9,6.2c-0.1,0-0.1,0-0.2,0C3.9,6.4,3.5,7.2,3.8,8
	c0,0.1,0,0.1,0.1,0.2c0.3,0.6,0.8,1.2,1.4,1.5c0.7,0.5,1.5,0.8,2.3,0.8c1,0,1.9,0.2,2.8,0.5c0.8,0.3,1.5,0.8,2.1,1.3
	c0.8,0.7,1.5,1.6,1.9,2.7c0.2,0.7,0.5,1.4,0.6,2.1c0,0,0,0.2,0,0.2c0.1,0.7,0.1,1.4,0.1,2.1c0,0.9-0.3,1.9-0.7,2.7
	c-0.3,0.5-0.7,0.9-1.3,1.2c-0.6,0.3-1.2,0.3-1.9,0.2h-0.1c-0.6-0.3-1-0.7-1.3-1.2l-0.1-0.1c-0.3-0.7-0.3-1.5,0-2.1
	c0.2-0.4,0.5-0.7,0.8-0.9c0.4-0.2,0.8-0.3,1.2-0.3H12c0.4,0.1,0.8,0.4,1.1,0.7c0.3,0.4,0.4,1,0.2,1.4c-0.2,0.4-0.5,0.6-0.9,0.5
	c-0.4,0-0.8-0.2-0.8-0.7c0-0.3,0-0.5,0.1-0.8c0.1-0.2,0-0.3-0.2-0.1l-0.2,0.2l-0.1,0.1c-0.2,0.3-0.3,0.6-0.3,1
	c0.1,0.5,0.6,0.9,1.1,1c0.6,0,1.1-0.3,1.4-0.8c0.3-0.4,0.4-0.8,0.5-1.3c0.1-0.6,0.1-1.2,0-1.8c-0.1-0.6-0.3-1.3-0.5-1.9
	c-0.3-0.7-0.8-1.4-1.4-2c-0.6-0.5-1.3-0.9-2-1.2c-0.7-0.2-1.4-0.3-2.2-0.2c-0.6,0.1-1.1,0-1.7-0.1c-2.2-0.6-3.8-2.6-3.9-4.9V7.9
	C2.4,5.9,3.3,5,4.7,4.9z"/>
<path class="st0" d="M26.1,4.9h-0.2c-1.1,0.1-2.2,0.5-2.3,1.9V7c0,0,0,0.1,0,0.2c0.1,0.7,0.7,1.3,1.4,1.2h0.1
	c0.5-0.1,0.9-0.7,0.7-1.2c0,0,0,0,0-0.1V7c-0.1-0.2-0.2-0.3-0.4-0.4h-0.1c-0.2,0-0.4,0.2-0.6,0.3c0.1-0.5,0.6-0.9,1.1-0.8
	c0.1,0,0.1,0,0.2,0c0.7,0.2,1.2,1,0.9,1.7C27.1,8,27,8,27,8.1c-0.3,0.7-0.8,1.2-1.4,1.5c-0.7,0.5-1.5,0.8-2.3,0.8
	c-1,0-1.9,0.2-2.8,0.5c-0.8,0.3-1.5,0.8-2.1,1.3c-0.8,0.7-1.5,1.6-1.9,2.7c-0.3,0.7-0.5,1.4-0.6,2.1c0,0,0,0.2,0,0.2
	c-0.1,0.7-0.1,1.4-0.1,2.1c0,0.9,0.3,1.9,0.7,2.7c0.3,0.5,0.7,0.9,1.3,1.2c0.6,0.3,1.2,0.3,1.9,0.2h0.1c0.5-0.3,1-0.7,1.3-1.2
	l0.1-0.1c0.3-0.7,0.3-1.5-0.1-2.1c-0.2-0.4-0.5-0.7-0.8-0.9c-0.4-0.2-0.8-0.3-1.2-0.2h-0.2c-0.4,0.1-0.8,0.4-1.1,0.7
	c-0.3,0.4-0.4,1-0.2,1.4c0.2,0.4,0.5,0.6,0.9,0.5c0.5,0,0.8-0.2,0.8-0.7c0-0.3,0-0.5-0.1-0.8c-0.1-0.2,0-0.3,0.2-0.1l0.2,0.2
	l0.1,0.1c0.2,0.3,0.3,0.6,0.3,1c-0.1,0.5-0.6,0.9-1.1,1c-0.6,0-1.1-0.3-1.4-0.8c-0.2-0.4-0.4-0.8-0.5-1.3c-0.1-0.6-0.1-1.2,0-1.8
	c0.1-0.6,0.3-1.3,0.5-1.9c0.3-0.8,0.8-1.5,1.4-2.1c0.6-0.5,1.3-0.9,2-1.2c0.7-0.2,1.4-0.3,2.1-0.2c0.6,0.1,1.1,0,1.7-0.1
	c2.2-0.6,3.8-2.6,3.9-4.8V7.9C28.4,5.9,27.5,5,26.1,4.9z"/>
</svg>
