<?xml version="1.0" encoding="utf-8"?>
<!-- Generator: Adobe Illustrator 24.0.2, SVG Export Plug-In . SVG Version: 6.00 Build 0)  -->
<svg version="1.1" id="圖層_1" xmlns="http://www.w3.org/2000/svg" xmlns:xlink="http://www.w3.org/1999/xlink" x="0px" y="0px"
	 viewBox="0 0 36 50" style="enable-background:new 0 0 36 50;" xml:space="preserve">
<style type="text/css">
	.st0{fill:#C17E11;}
	.st1{fill:#F5C63B;}
	.st2{fill:#FFFFFF;}
	.st3{font-family:'DFYuan-W5-WIN-BF';}
	.st4{font-size:18.4413px;}
</style>
<g>
	<path class="st0" d="M35.8,18.5c0,10-8,18.1-17.9,18.1c-9.9,0-17.9-8.1-17.9-18.1s8-18.1,17.9-18.1C27.8,0.4,35.8,8.5,35.8,18.5z"
		/>
</g>
<g>
	<g>
		<path class="st1" d="M8.5,23.5c0-0.5,0.4-0.9,0.9-0.9l0,0c0.5,0,0.9,0.4,0.9,0.9l0,0c0,4.2,3.4,7.6,7.7,7.7l0,0
			c4.2,0,7.6-3.4,7.7-7.7l0,0c0-0.5,0.4-0.9,0.9-0.9l0,0c0.5,0,0.9,0.4,0.9,0.9l0,0c0,5.2-4.2,9.4-9.4,9.4l0,0
			C12.7,32.9,8.5,28.7,8.5,23.5L8.5,23.5z"/>
	</g>
	<g>
		<path class="st1" d="M18.8,23.9c0-0.5-0.4-0.9-0.9-0.9c-0.5,0-0.9,0.4-0.9,0.9v24.7h1.8L18.8,23.9L18.8,23.9z"/>
	</g>
</g>
<text transform="matrix(0 -1 1 0 23.4905 13.9405)" class="st2 st3 st4">&gt;</text>
</svg>
